<!DOCTYPE svg PUBLIC "-//W3C//DTD SVG 1.1//EN" "http://www.w3.org/Graphics/SVG/1.1/DTD/svg11.dtd">
<!-- Uploaded to: SVG Repo, www.svgrepo.com, Transformed by: SVG Repo Mixer Tools -->
<svg fill="#ffffff" version="1.1" id="Capa_1" xmlns="http://www.w3.org/2000/svg" xmlns:xlink="http://www.w3.org/1999/xlink" viewBox="0 0 512 512" xml:space="preserve"><g id="SVGRepo_bgCarrier" stroke-width="0"></g><g id="SVGRepo_tracerCarrier" stroke-linecap="round" stroke-linejoin="round"></g><g id="SVGRepo_iconCarrier"> <g> <g> <polygon points="95.378,160.36 95.378,144.638 56.598,144.638 56.598,367.885 95.378,367.885 95.378,352.163 72.319,352.163 72.319,160.36 "></polygon> </g> </g> <g> <g> <rect x="32.491" y="215.909" width="15.722" height="80.704"></rect> </g> </g> <g> <g> <polygon points="24.106,247.353 24.106,231.631 0,231.631 0,287.181 24.106,287.181 24.106,271.459 15.722,271.459 15.722,247.353 "></polygon> </g> </g> <g> <g> <path d="M32.411,303.985v8.135h-8.134c-13.155,0-23.856,10.701-23.856,23.856v7.997c0,13.155,10.701,23.856,23.856,23.856 s23.856-10.701,23.856-23.856v-39.988H32.411z M32.411,343.974c0,4.486-3.648,8.134-8.134,8.134s-8.134-3.648-8.134-8.134v-7.997 c0-4.486,3.648-8.134,8.134-8.134h8.134V343.974z"></path> </g> </g> <g> <g> <path d="M336.325,128.174v96.121h-0.001H176.096v-96.121H104.39v255.653h71.706v-96.646h160.228v96.646h71.706V128.174H336.325z M160.374,368.105h-40.263V143.894h40.263V368.105z M221.67,271.459h-45.576v-31.443h0.001h50.815L221.67,271.459z M245.664,271.459h-8.055l5.241-31.443h8.055L245.664,271.459z M269.657,271.459h-8.055l5.241-31.443h8.055L269.657,271.459z M336.324,271.459h-50.728l5.241-31.443h45.488V271.459z M392.308,368.105h-40.263V143.894h40.263V368.105z"></path> </g> </g> <g> <g> <polygon points="416.098,144.638 416.098,160.36 440.205,160.36 440.205,352.163 416.098,352.163 416.098,367.885 455.926,367.885 455.926,144.638 "></polygon> </g> </g> <g> <g> <rect x="464.311" y="215.909" width="15.722" height="80.704"></rect> </g> </g> <g> <g> <polygon points="488.418,231.631 488.418,247.353 495.754,247.353 495.754,271.459 488.418,271.459 488.418,287.181 511.476,287.181 511.476,231.631 "></polygon> </g> </g> <g> <g> <path d="M488.144,312.12h-8.134v-8.134h-15.722v39.988c0,13.155,10.701,23.856,23.856,23.856S512,357.129,512,343.974v-7.997 C512,322.823,501.299,312.12,488.144,312.12z M496.278,343.974c0,4.486-3.648,8.134-8.134,8.134s-8.134-3.648-8.134-8.134v-16.132 h8.134c4.486,0,8.134,3.648,8.134,8.134V343.974z"></path> </g> </g> </g></svg>
